<mxfile host="app.diagrams.net" modified="2024-01-11T14:47:00.139Z" agent="Mozilla/5.0 (Windows NT 10.0; Win64; x64) AppleWebKit/537.36 (KHTML, like Gecko) Chrome/120.0.0.0 Safari/537.36 Edg/120.0.0.0" etag="HF5z6M2Kjvu0DyF50O6Z" version="22.1.18" type="github">
  <diagram id="prtHgNgQTEPvFCAcTncT" name="Page-1">
    <mxGraphModel dx="1340" dy="686" grid="1" gridSize="10" guides="1" tooltips="1" connect="1" arrows="1" fold="1" page="1" pageScale="1" pageWidth="827" pageHeight="1169" math="0" shadow="0">
      <root>
        <mxCell id="0" />
        <mxCell id="1" parent="0" />
        <mxCell id="oDgGD3F3by6BS1TuUeTV-1" value="消费习惯分析与建议" style="swimlane;childLayout=stackLayout;resizeParent=1;resizeParentMax=0;startSize=20;html=1;" vertex="1" parent="1">
          <mxGeometry x="190.00000000000045" y="70" width="660" height="670" as="geometry" />
        </mxCell>
        <mxCell id="oDgGD3F3by6BS1TuUeTV-2" value="用户" style="swimlane;startSize=20;html=1;" vertex="1" parent="oDgGD3F3by6BS1TuUeTV-1">
          <mxGeometry y="20" width="340" height="650" as="geometry" />
        </mxCell>
        <mxCell id="oDgGD3F3by6BS1TuUeTV-5" value="" style="ellipse;html=1;shape=startState;fillColor=#000000;strokeColor=#ff0000;" vertex="1" parent="oDgGD3F3by6BS1TuUeTV-2">
          <mxGeometry x="117.99999999999955" y="31" width="30" height="30" as="geometry" />
        </mxCell>
        <mxCell id="oDgGD3F3by6BS1TuUeTV-6" value="" style="edgeStyle=orthogonalEdgeStyle;html=1;verticalAlign=bottom;endArrow=open;endSize=8;strokeColor=#ff0000;rounded=0;" edge="1" parent="oDgGD3F3by6BS1TuUeTV-2">
          <mxGeometry relative="1" as="geometry">
            <mxPoint x="132.99999999999955" y="90" as="targetPoint" />
            <mxPoint x="132.99999999999955" y="60" as="sourcePoint" />
          </mxGeometry>
        </mxCell>
        <mxCell id="oDgGD3F3by6BS1TuUeTV-9" style="edgeStyle=orthogonalEdgeStyle;rounded=0;orthogonalLoop=1;jettySize=auto;html=1;exitX=0.5;exitY=1;exitDx=0;exitDy=0;" edge="1" parent="oDgGD3F3by6BS1TuUeTV-2" source="oDgGD3F3by6BS1TuUeTV-7" target="oDgGD3F3by6BS1TuUeTV-8">
          <mxGeometry relative="1" as="geometry" />
        </mxCell>
        <mxCell id="oDgGD3F3by6BS1TuUeTV-7" value="进入流水管理页面" style="rounded=1;whiteSpace=wrap;html=1;shadow=0;comic=0;labelBackgroundColor=none;strokeWidth=1;fontFamily=Verdana;fontSize=12;align=center;arcSize=50;" vertex="1" parent="oDgGD3F3by6BS1TuUeTV-2">
          <mxGeometry x="77.5" y="90" width="112.5" height="30" as="geometry" />
        </mxCell>
        <mxCell id="oDgGD3F3by6BS1TuUeTV-8" value="点击消费习惯分析" style="rounded=1;whiteSpace=wrap;html=1;shadow=0;comic=0;labelBackgroundColor=none;strokeWidth=1;fontFamily=Verdana;fontSize=12;align=center;arcSize=50;" vertex="1" parent="oDgGD3F3by6BS1TuUeTV-2">
          <mxGeometry x="77.5" y="150" width="112.5" height="30" as="geometry" />
        </mxCell>
        <mxCell id="oDgGD3F3by6BS1TuUeTV-3" value="流水管理子系统" style="swimlane;startSize=20;html=1;" vertex="1" parent="oDgGD3F3by6BS1TuUeTV-1">
          <mxGeometry x="340" y="20" width="320" height="650" as="geometry" />
        </mxCell>
      </root>
    </mxGraphModel>
  </diagram>
</mxfile>
